<?xml version="1.0" ?><svg enable-background="new 0 0 32 32" version="1.1" viewBox="0 0 32 32" xml:space="preserve" xmlns="http://www.w3.org/2000/svg" xmlns:xlink="http://www.w3.org/1999/xlink"><g id="Outline_copy_2"><g><path d="M31.888,10.249c-0.045-1.805-0.423-3.488-1.784-4.009C28.1,5.472,25.043,6.06,22.979,6.06c-4.577,0-9.155,0-13.732,0    c-2.229,0-4.894-0.419-7.093,0.068c-1.878,0.415-1.824,1.994-1.824,3.53c0,0.149,0,0.298,0,0.446    c-0.537,0.003-0.324,0.257,0,0.358c0,1.291,0,2.582,0,3.874c-0.054,0-0.108,0-0.162,0c-0.322,0-0.105,0.199,0.162,0.346    c0,0.671,0,1.343,0,2.014c0,2.726-1.312,8.563,2.342,9.261c0.026,0.008,0.051,0.016,0.079,0.021    c0.004,0.001,0.007,0.002,0.011,0.003c0.016,0.003,0.028,0.001,0.043,0.003c0.03,0.004,0.059,0.01,0.089,0.01    c0.016,0,0.032,0,0.048,0c0.006,0,0.013,0,0.018,0c7.152,0,14.303,0,21.455,0c1.636,0,5.661,0.721,6.848-0.893    c0.674-0.917,0.407-2.497,0.407-3.554c0-2.227,0-4.455,0-6.682c0-0.01,0.001-0.022,0.001-0.032c0.054,0,0.107,0,0.161,0    c0.318,0,0.11-0.195-0.152-0.341c0.043-1.023,0.225-2.542,0.21-4.014C32.045,10.432,32.011,10.334,31.888,10.249z M2.906,6.482    c1.947-0.459,4.558,0,6.545,0c3.987,0,7.975,0,11.962,0c1.663,0,3.325,0,4.988,0c0.742,0,2.01-0.252,2.718,0    c1.27,0.452,1.676,1.956,1.76,3.622c-9.919,0-19.839,0-29.758,0C1.236,8.319,1.675,6.772,2.906,6.482z M1.099,10.506    c9.931,0,19.862,0,29.794,0c0.028,1.378-0.128,2.81-0.188,3.831c-9.824,0-19.649,0-29.473,0    C1.15,13.231,1.049,11.826,1.099,10.506z M30.682,23.729c-0.412,2.779-5.106,1.844-7.077,1.844c-6.941,0-13.881,0-20.822,0    c-0.821-0.171-1.337-1.411-1.465-2.173c-0.098-0.58,0-1.265,0-1.853c0-1.898,0-3.795,0-5.693c0-0.261-0.021-0.613-0.05-1.021    c9.806,0,19.612,0,29.417,0c-0.001,0.041-0.003,0.088-0.003,0.127C30.682,17.777,31.096,20.939,30.682,23.729z"/><path d="M17.97,18.362c-4.669,0-9.339,0-14.008,0c-0.507,0,0.323,0.497,0.577,0.497c4.669,0,9.339,0,14.008,0    C19.054,18.858,18.224,18.362,17.97,18.362z"/><path d="M9.261,21.187c-1.767,0-3.534,0-5.301,0c-0.506,0,0.328,0.492,0.581,0.492c1.767,0,3.534,0,5.301,0    C10.348,21.679,9.515,21.187,9.261,21.187z"/></g></g></svg>